<svg xmlns="http://www.w3.org/2000/svg" version="1.1" xmlns:xlink="http://www.w3.org/1999/xlink" width="200" height="200"><svg xmlns="http://www.w3.org/2000/svg" version="1.1" xmlns:xlink="http://www.w3.org/1999/xlink" viewBox="0 0 200 200"><rect width="200" height="200" fill="url('#gradient')"></rect><defs><linearGradient id="SvgjsLinearGradient1001" gradientTransform="rotate(45 0.5 0.5)"><stop offset="0%" stop-color="#fc7c0d"></stop><stop offset="100%" stop-color="#fc7c0d"></stop></linearGradient></defs><g><g fill="#f9f2f5" transform="matrix(7.780498100464331,0,0,7.780498100464331,1.6529041612233897,154.54300875299435)" stroke="#060606" stroke-width="0.2"><path d="M12.96-14.22L12.96 0L9.55 0L9.55-5.94L4.50-5.94L4.50 0L1.07 0L1.07-14.22L4.50-14.22L4.50-8.57L9.55-8.57L9.55-14.22L12.96-14.22ZM20.79-4.46L20.79-14.22L24.21-14.22L24.21-4.46Q24.21-3.11 23.58-2.04Q22.95-0.98 21.82-0.39Q20.69 0.20 19.31 0.20L19.31 0.20Q16.98 0.20 15.69-0.98Q14.40-2.15 14.40-4.30L14.40-4.30L17.84-4.30Q17.84-3.32 18.18-2.88Q18.52-2.44 19.31-2.44L19.31-2.44Q20.02-2.44 20.41-2.97Q20.79-3.51 20.79-4.46L20.79-4.46Z"></path></g></g></svg><style>@media (prefers-color-scheme: light) { :root { filter: none; } }
@media (prefers-color-scheme: dark) { :root { filter: none; } }
</style></svg>